<?xml version="1.0" encoding="UTF-8" standalone="no"?>
<svg
   xmlns:dc="http://purl.org/dc/elements/1.1/"
   xmlns:cc="http://creativecommons.org/ns#"
   xmlns:rdf="http://www.w3.org/1999/02/22-rdf-syntax-ns#"
   xmlns:svg="http://www.w3.org/2000/svg"
   xmlns="http://www.w3.org/2000/svg"
   xmlns:xlink="http://www.w3.org/1999/xlink"
   width="3.2602479mm"
   height="38.745079mm"
   viewBox="0 0 11.55206 137.28571"
   id="svg4176"
   version="1.1">
  <defs
     id="defs4178" />
  <g
     id="layer1"
     transform="matrix(0.22408532,0,0,0.26746452,-77.45566,-75.655603)">
    <g
       id="g4861">
      <path
         d="m 345.89952,796.14792 0,-4 c 11.80471,-6 16.79901,-33 16.79901,-71 l 0,-100 c 0,-30 2.27014,-51 6.81041,-64 4.54027,-13 14.07485,-19 27.69566,-20 l 0,8 c -16.34498,10 -16.34498,51 -16.34498,72 l 0,100 c 0,39 -2.72416,64 -16.79901,77"
         id="path4161-4" />
      <path
         d="m 397.2046,541.8622 0,-4 c -11.86154,-6 -16.87988,-33 -16.87988,-71 l 0,-100 c 0,-30 -2.28107,-51 -6.84319,-64 -4.56213,-13 -14.14261,-19 -27.82899,-20 l 0,8 c 16.42366,10 16.42366,51 16.42366,72 l 0,100 c 0,39 2.73728,64 16.87989,77"
         id="path4161-2" />
    </g>
  </g>
</svg>
