<?xml version="1.0" standalone="no"?>
<!DOCTYPE svg PUBLIC "-//W3C//DTD SVG 20010904//EN"
 "http://www.w3.org/TR/2001/REC-SVG-20010904/DTD/svg10.dtd">
<svg version="1.1" xmlns="http://www.w3.org/2000/svg"
 width="960.000000pt" height="960.000000pt" viewBox="0 0 960.000000 960.000000"
 preserveAspectRatio="xMidYMid meet">

<g transform="translate(0.000000,960.000000) scale(0.100000,-0.100000)"
fill="#000000" stroke="none">
<path d="M8128 8484 c-230 -41 -471 -171 -688 -368 -283 -259 -463 -485 -605
-759 l-50 -97 -2312 0 -2313 0 0 -1736 0 -1737 -72 6 c-264 23 -449 157 -502
362 -8 33 -19 106 -24 161 -6 70 -16 116 -31 147 -76 156 -319 261 -531 228
-104 -17 -115 -29 -21 -23 206 12 363 -72 422 -226 30 -79 37 -242 15 -377
-13 -86 -14 -107 -2 -151 40 -151 185 -305 396 -421 62 -34 219 -94 298 -114
l52 -13 0 -303 0 -303 2910 0 2910 0 0 2250 0 2250 -330 0 c-219 0 -330 3
-330 10 0 31 110 220 194 332 83 112 248 273 298 291 24 8 60 -24 88 -79 34
-65 92 -106 145 -102 l40 3 8 93 c9 116 34 196 62 200 13 2 53 -25 114 -78
109 -93 169 -117 311 -127 81 -5 87 -4 115 20 28 24 30 30 33 114 6 149 -38
287 -119 374 l-40 44 6 -30 c7 -40 -18 -112 -53 -149 -31 -33 -96 -65 -132
-66 -49 0 -103 22 -142 59 -96 89 -73 252 44 310 l43 21 -65 -1 c-36 0 -100
-7 -142 -15z m-1398 -1314 c0 -16 -132 -245 -198 -344 -109 -163 -209 -263
-312 -314 -48 -23 -67 -27 -145 -26 -110 0 -163 22 -335 138 -193 131 -432
236 -640 281 -118 25 -372 31 -509 11 -212 -32 -447 -118 -616 -228 -157 -103
-327 -276 -448 -456 -72 -109 -196 -358 -236 -477 -68 -205 -90 -321 -101
-555 -10 -210 -35 -354 -86 -513 -164 -508 -478 -857 -801 -891 l-63 -7 0
1689 c0 929 3 1692 7 1695 11 12 4483 8 4483 -3z m1165 -2158 l0 -2162 -2797
0 c-1539 0 -2811 0 -2828 0 l-29 0 0 250 0 249 67 -5 c37 -3 83 -7 102 -9 59
-7 326 14 436 36 113 22 260 76 349 130 67 40 183 137 240 200 22 24 41 42 44
39 6 -7 9 -57 16 -319 6 -246 10 -264 57 -308 51 -48 106 -62 285 -74 173 -12
277 -5 309 22 33 27 11 76 -82 186 -31 36 -65 84 -75 107 -42 92 -16 214 101
490 39 92 78 190 86 217 8 27 21 49 28 49 17 0 50 -68 72 -151 19 -74 24 -253
10 -425 -8 -105 -8 -115 13 -157 30 -62 74 -81 233 -102 164 -22 307 -18 337
9 30 27 27 73 -9 137 -82 148 -102 195 -107 248 -7 72 23 401 43 477 16 64 40
107 55 102 6 -2 20 -33 33 -70 36 -102 79 -169 169 -259 92 -94 140 -166 199
-302 59 -137 91 -266 88 -357 -1 -41 -3 -89 -3 -107 -1 -42 25 -79 73 -103 98
-50 455 -120 612 -120 84 0 125 11 135 36 10 26 -32 98 -106 182 -80 91 -113
141 -206 312 -37 69 -88 160 -113 203 -38 66 -45 89 -49 145 -9 122 34 251
103 311 l37 33 111 -8 c202 -16 280 -5 404 58 l77 39 22 -26 c44 -50 100 -274
87 -349 -3 -22 -26 -77 -49 -122 -69 -130 -84 -298 -36 -392 34 -66 180 -127
335 -138 105 -8 272 24 299 57 33 41 16 98 -67 222 -106 159 -119 257 -55 416
31 76 31 77 25 216 -6 153 -29 377 -52 495 -17 89 -18 170 -3 225 6 22 35 105
64 185 78 209 153 468 166 573 13 103 7 248 -17 456 -24 200 -15 499 20 682
25 132 78 323 111 402 l15 37 308 -2 307 -3 0 -2163z"/>
<path d="M8256 8339 c-59 -47 -12 -147 64 -135 61 9 99 75 67 117 -32 42 -90
50 -131 18z"/>
<path d="M2725 2602 l-180 -2 -34 -133 c-18 -72 -107 -415 -196 -762 -90 -346
-167 -642 -170 -658 l-7 -27 190 0 190 0 11 51 c6 28 19 93 28 145 l18 94 147
0 c80 0 153 2 161 6 11 4 20 -26 43 -143 l29 -148 193 -3 c187 -2 193 -2 187
17 -3 11 -21 79 -40 153 -72 277 -247 962 -302 1176 -39 154 -61 225 -72 230
-9 4 -97 6 -196 4z m29 -484 c4 -35 24 -161 45 -281 20 -120 34 -220 30 -223
-14 -8 -179 -2 -185 7 -3 5 5 62 16 126 12 65 26 143 31 173 9 51 39 259 39
267 0 2 4 2 9 -1 5 -3 12 -34 15 -68z"/>
<path d="M5153 2603 l-183 -3 0 -790 0 -790 185 0 185 0 0 795 c0 437 -1 794
-2 793 -2 -2 -85 -4 -185 -5z"/>
<path d="M3023 2588 c31 -74 184 -425 202 -466 14 -29 25 -55 25 -58 0 -3 11
-29 24 -57 13 -29 56 -125 95 -214 l71 -162 0 -305 0 -306 190 0 190 0 0 309
0 309 71 164 c39 89 99 228 134 308 34 80 68 157 75 173 l13 27 156 0 c182 0
213 -9 246 -75 29 -57 28 -194 -1 -250 -30 -58 -70 -75 -177 -75 -67 0 -87 -3
-83 -12 20 -49 242 -749 273 -860 4 -16 22 -18 203 -18 l198 0 -80 243 c-44
133 -96 287 -115 342 l-35 99 23 15 c49 31 112 106 140 166 42 88 56 199 42
325 -23 210 -124 330 -315 375 -49 11 -139 15 -409 15 l-347 0 -77 -232 c-42
-128 -87 -278 -100 -333 -12 -55 -25 -93 -28 -85 -3 8 -15 58 -28 110 -20 87
-116 395 -155 498 l-16 42 -205 0 c-160 0 -204 -3 -200 -12z"/>
<path d="M5405 1810 l0 -790 179 0 c154 0 177 2 172 15 -6 17 -9 855 -3 861 2
3 15 -21 27 -53 24 -60 269 -556 358 -723 l50 -95 151 -3 151 -3 0 791 0 790
-176 0 -177 0 5 -400 c2 -220 1 -397 -2 -393 -3 5 -12 26 -19 48 -21 62 -94
214 -157 327 -31 57 -78 141 -103 188 -25 47 -64 118 -86 157 l-40 73 -165 0
-165 0 0 -790z"/>
<path d="M6530 2440 l0 -160 160 0 160 0 0 -630 0 -630 188 0 187 0 0 628 0
627 163 3 162 2 0 160 0 160 -510 0 -510 0 0 -160z"/>
<path d="M7590 1810 l0 -790 190 0 190 0 0 790 0 790 -190 0 -189 0 -1 -790z"/>
</g>
</svg>
