<?xml version="1.0" standalone="no"?>
<!DOCTYPE svg PUBLIC "-//W3C//DTD SVG 20010904//EN"
 "http://www.w3.org/TR/2001/REC-SVG-20010904/DTD/svg10.dtd">
<svg version="1.1" xmlns="http://www.w3.org/2000/svg"
 width="959.000000pt" height="960.000000pt" viewBox="0 0 959.000000 960.000000"
 preserveAspectRatio="xMidYMid meet">

<g transform="translate(0.000000,960.000000) scale(0.100000,-0.100000)"
fill="#000000" stroke="none">
<path d="M925 8657 c-3 -6 -4 -1180 -3 -2607 3 -2491 4 -2597 21 -2650 74
-220 266 -360 493 -360 104 0 212 23 375 81 218 77 292 92 444 93 153 1 191
-7 430 -84 220 -71 308 -90 422 -90 113 0 183 16 406 89 236 77 277 85 432 85
148 0 215 -14 435 -89 245 -83 406 -103 567 -69 42 8 142 38 222 65 374 128
515 129 889 7 211 -68 303 -88 412 -88 111 0 217 23 392 84 211 74 294 90 453
90 149 -1 189 -9 442 -90 201 -64 296 -84 400 -84 232 0 424 139 499 360 18
53 19 141 19 2660 l0 2605 -3873 3 c-3102 2 -3874 0 -3877 -11z m7475 -2711
c0 -1536 -4 -2464 -10 -2480 -15 -42 -82 -108 -130 -129 -32 -14 -65 -20 -120
-19 -98 1 -138 11 -350 82 -235 80 -321 94 -530 87 -190 -6 -255 -20 -462 -95
-73 -27 -160 -55 -193 -62 -55 -11 -232 -17 -241 -7 -3 2 259 465 582 1028
399 696 588 1035 592 1061 6 49 -14 95 -49 113 -63 33 -82 26 -653 -220 -299
-129 -549 -235 -555 -235 -12 0 -32 25 -883 1055 -322 391 -596 716 -608 723
-31 19 -95 17 -125 -2 -14 -9 -90 -94 -168 -189 -103 -123 -1257 -1524 -1283
-1555 -1 -2 -282 96 -625 217 -406 144 -635 221 -661 221 -80 0 -127 -52 -115
-127 4 -22 90 -183 211 -393 558 -971 959 -1666 968 -1677 22 -27 -50 -11
-236 51 -258 88 -328 100 -536 93 -190 -6 -254 -19 -459 -96 -74 -28 -157 -55
-185 -61 -75 -15 -187 -14 -227 3 -49 20 -106 73 -130 118 -19 38 -19 83 -19
2494 l0 2455 3600 0 3600 0 0 -2454z m-3800 -466 c0 -478 -4 -870 -8 -870 -5
0 -51 16 -103 34 -52 19 -298 107 -548 196 -250 88 -456 162 -459 164 -5 5
1101 1346 1111 1346 4 0 7 -391 7 -870z m835 160 c307 -360 564 -662 572 -671
12 -14 -22 -31 -329 -164 -189 -82 -429 -186 -535 -232 -105 -46 -198 -83
-206 -83 -8 0 -28 5 -46 11 l-31 11 0 901 c0 497 4 897 9 892 4 -6 259 -305
566 -665z m-3058 -544 c68 -25 1602 -554 1996 -689 114 -39 204 -74 200 -78
-5 -3 -334 -147 -733 -319 -399 -172 -728 -314 -731 -316 -4 -2 -90 144 -192
324 -102 180 -285 501 -405 715 -121 213 -216 387 -212 387 5 0 39 -11 77 -24z
m4660 -18 c-25 -44 -300 -534 -702 -1248 -125 -223 -231 -409 -236 -414 -5 -6
-43 1 -96 17 -140 43 -233 57 -383 57 -203 0 -280 -16 -555 -115 -228 -82
-338 -79 -633 21 -254 85 -331 98 -542 91 -186 -6 -249 -19 -451 -93 -66 -24
-126 -44 -132 -44 -13 0 -75 106 -67 113 3 3 120 54 260 115 140 60 500 217
800 347 300 130 829 360 1175 510 347 151 842 366 1100 479 259 113 474 205
478 205 5 1 -2 -18 -16 -41z"/>
<path d="M927 2334 c-4 -4 -7 -52 -7 -106 l0 -98 135 0 136 0 -3 103 -3 102
-126 3 c-69 1 -128 -1 -132 -4z"/>
<path d="M3510 1635 l0 -705 130 0 130 0 0 343 c0 314 2 345 19 377 28 54 74
80 141 80 63 0 106 -22 144 -73 20 -27 21 -41 24 -378 l3 -349 129 0 130 0 0
333 c0 182 -5 364 -10 402 -27 188 -154 299 -340 297 -75 -1 -132 -19 -195
-62 l-45 -31 -2 233 -3 233 -127 3 -128 3 0 -706z"/>
<path d="M6707 2333 c-4 -3 -7 -321 -7 -705 l0 -698 130 0 130 0 0 153 1 152
54 59 54 60 23 -39 c13 -22 68 -116 123 -210 l100 -170 158 -3 c86 -1 157 0
157 3 0 4 -86 140 -190 302 -105 163 -189 301 -186 307 2 6 83 100 180 209
l176 197 -158 -1 -157 0 -165 -205 -165 -205 -3 401 -2 400 -123 0 c-68 0
-127 -3 -130 -7z"/>
<path d="M8417 2334 c-4 -4 -7 -52 -7 -106 l0 -98 135 0 136 0 -3 103 -3 102
-126 3 c-69 1 -128 -1 -132 -4z"/>
<path d="M2157 2223 c-4 -3 -7 -73 -7 -155 l0 -148 -50 0 -50 0 0 -95 0 -95
49 0 49 0 4 -292 3 -293 28 -57 c16 -32 46 -73 69 -92 59 -51 114 -66 235 -66
l103 0 0 104 0 103 -67 6 c-57 4 -71 9 -90 32 -23 26 -23 30 -23 291 l0 264
90 0 90 0 0 95 0 95 -90 0 -90 0 0 155 0 155 -123 0 c-68 0 -127 -3 -130 -7z"/>
<path d="M5390 1959 c-114 -12 -179 -40 -253 -108 l-27 -25 77 -78 c43 -43 83
-78 89 -78 6 0 17 7 25 16 48 58 205 80 283 38 49 -25 76 -74 76 -136 l0 -48
-122 0 c-227 -1 -332 -30 -403 -113 -96 -112 -83 -319 27 -424 61 -59 108 -73
246 -73 128 0 160 9 240 66 22 16 22 16 22 -25 l0 -41 126 0 125 0 -3 388 -3
387 -28 60 c-16 33 -40 73 -55 88 -78 83 -257 125 -442 106z m270 -656 c0
-114 -47 -163 -163 -171 -139 -9 -183 26 -178 139 1 30 43 76 74 82 12 2 77 5
145 6 l122 1 0 -57z"/>
<path d="M922 1443 l3 -508 128 -3 127 -3 0 511 0 510 -130 0 -130 0 2 -507z"/>
<path d="M8420 1440 l0 -510 130 0 130 0 0 510 0 510 -130 0 -130 0 0 -510z"/>
</g>
</svg>
