<?xml version="1.0" encoding="UTF-8" standalone="no"?>
<!-- Created with Inkscape (http://www.inkscape.org/) -->

<svg
   xmlns:dc="http://purl.org/dc/elements/1.1/"
   xmlns:cc="http://creativecommons.org/ns#"
   xmlns:rdf="http://www.w3.org/1999/02/22-rdf-syntax-ns#"
   xmlns:svg="http://www.w3.org/2000/svg"
   xmlns="http://www.w3.org/2000/svg"
   version="1.1"
   width="72.431068"
   height="34.924049"
   id="svg2">
  <defs
     id="defs4">
    <filter
       color-interpolation-filters="sRGB"
       id="filter2989">
      <feFlood
         result="flood"
         flood-color="rgb(0,0,0)"
         flood-opacity="0.75"
         id="feFlood2991" />
      <feComposite
         in2="SourceGraphic"
         operator="in"
         in="flood"
         result="composite1"
         id="feComposite2993" />
      <feGaussianBlur
         result="blur"
         stdDeviation="2"
         id="feGaussianBlur2995" />
      <feOffset
         result="offset"
         dy="4"
         dx="4"
         id="feOffset2997" />
      <feComposite
         in2="offset"
         operator="over"
         in="SourceGraphic"
         result="composite2"
         id="feComposite2999" />
    </filter>
  </defs>
  <metadata
     id="metadata7">
    <rdf:RDF>
      <cc:Work
         rdf:about="">
        <dc:format>image/svg+xml</dc:format>
        <dc:type
           rdf:resource="http://purl.org/dc/dcmitype/StillImage" />
        <dc:title></dc:title>
      </cc:Work>
    </rdf:RDF>
  </metadata>
  <g
     transform="translate(-128.08387,-112.11491)"
     id="layer1">
    <g
       id="text2985"
       style="font-size:40px;font-style:normal;font-variant:normal;font-weight:normal;font-stretch:normal;line-height:125%;letter-spacing:0px;word-spacing:0px;fill:#000000;fill-opacity:1;stroke:none">
      <path
         d="m 194.47901,130.50505 c -0.0209,-2.05913 -0.56922,-3.73077 -1.64498,-5.01494 -1.07588,-1.28413 -2.55419,-1.94579 -4.43494,-1.98497 -1.00921,0.0234 -1.86087,0.34668 -2.55497,0.96999 -0.69421,0.62334 -1.05587,1.40666 -1.08498,2.34997 0.006,0.79917 0.25411,1.46082 0.74499,1.98497 0.49077,0.52417 1.18909,0.79584 2.09497,0.81499 -0.11339,-0.39331 -0.16672,-0.76664 -0.16,-1.11999 0.0141,-0.66747 0.22578,-1.19247 0.63499,-1.57498 0.40911,-0.38248 0.93077,-0.57747 1.56498,-0.58499 0.98493,0.0134 1.80492,0.38668 2.45997,1.11999 0.65493,0.73334 0.99493,1.74666 1.01999,3.03996 0.002,0.97061 -0.29537,2.09159 -0.89184,3.36292 -0.5966,1.27135 -1.50424,2.38935 -2.72293,3.35403 -1.21881,0.96468 -2.76051,1.47233 -4.62513,1.52294 -2.04544,-0.0752 -3.68958,-0.82727 -4.93243,-2.25622 -1.24295,-1.42893 -2.3521,-3.08349 -3.32746,-4.96369 -0.97545,-1.88017 -2.0846,-3.53473 -3.32746,-4.96368 -1.24294,-1.42892 -2.88708,-2.181 -4.93243,-2.25622 -0.1217,0.003 -0.26837,0.0275 -0.44,0.075 -0.1717,0.0475 -0.35836,0.10251 -0.55999,0.16499 0.30246,-0.4808 0.53746,-0.99913 0.70499,-1.55498 0.16746,-0.5558 0.25246,-1.14413 0.255,-1.76497 -0.0459,-1.74579 -0.6542,-3.2041 -1.82498,-4.37495 -1.17085,-1.17079 -2.62916,-1.77911 -4.37494,-1.82497 -1.77168,0.0542 -3.26832,0.69585 -4.48995,1.92497 -1.22167,1.22918 -1.85833,2.72082 -1.90997,4.47494 0.0258,0.98668 0.25414,2.07333 0.68499,3.25996 0.4308,1.18667 0.90913,2.19332 1.43498,3.01996 -1.31417,-0.81497 -2.96582,-1.47496 -4.95493,-1.97997 -1.98916,-0.50498 -3.63081,-0.76497 -4.92494,-0.77999 -3.74413,0.0992 -6.95575,1.36083 -9.63488,3.78495 -2.67913,2.42415 -4.08078,5.41577 -4.20494,8.97489 0.0558,2.22664 0.56415,3.85328 1.52498,4.87993 0.96081,1.02666 2.03913,1.53331 3.23496,1.51998 1.16747,-0.0342 2.13246,-0.44583 2.89496,-1.23498 0.76248,-0.78916 1.15747,-1.75081 1.18498,-2.88496 -0.0275,-1.13249 -0.4225,-2.08747 -1.18498,-2.86497 -0.7625,-0.77748 -1.72749,-1.18248 -2.89496,-1.21498 -0.32251,-8.3e-4 -0.6375,0.0308 -0.94499,0.095 -0.3075,0.0642 -0.5925,0.16584 -0.85499,0.30499 0.12333,-3.14828 1.27664,-5.60158 3.45995,-7.3599 2.1833,-1.7583 4.6566,-2.65162 7.41991,-2.67997 1.53579,0.0183 3.16411,0.30168 4.88494,0.84999 1.72079,0.54834 3.1991,1.25167 4.43494,2.10997 -2.105,0.61751 -3.76497,1.6125 -4.97994,2.98497 -1.215,1.37249 -1.83499,3.13746 -1.85997,5.29493 0.0425,1.83248 0.67747,3.37746 1.90497,4.63494 1.22747,1.25748 2.79244,1.91247 4.69494,1.96497 1.74579,-0.0458 3.2041,-0.65416 4.37495,-1.82497 1.17078,-1.17082 1.77911,-2.62913 1.82497,-4.37495 -0.007,-1.04664 -0.23336,-1.9933 -0.67999,-2.83996 1.63411,3.12413 3.96575,5.41577 6.99491,6.87491 3.02909,1.45915 6.07071,2.1808 9.12488,2.16497 4.59573,-0.10916 8.35401,-1.46081 11.27486,-4.05495 2.92073,-2.59412 4.42905,-5.77575 4.52494,-9.54487 z m -9.59988,9.55987 c -0.34004,0.25 -0.87004,0.47 -1.58997,0.66 -0.72005,0.18999 -1.63003,0.28999 -2.72997,0.29999 -1.66753,-0.064 -3.2875,-0.70353 -4.85994,-1.91872 -1.57252,-1.21519 -3.1725,-2.62226 -4.79994,-4.2212 -1.62751,-1.59893 -3.35749,-3.00599 -5.18993,-4.2212 -1.83251,-1.21517 -3.84248,-1.85475 -6.02992,-1.91872 -0.56669,-0.80747 -1.14335,-1.95246 -1.72998,-3.43496 -0.58669,-1.48246 -0.90335,-2.77744 -0.94999,-3.88495 0.0383,-1.48912 0.54164,-2.70077 1.50998,-3.63495 0.9683,-0.93413 2.17161,-1.41579 3.60996,-1.44498 1.65578,0.0534 2.88409,0.56669 3.68495,1.53998 0.80079,0.97334 1.19912,2.08666 1.19498,3.33996 -0.004,0.55418 -0.0859,1.15584 -0.24499,1.80497 -0.1592,0.64918 -0.37087,1.26084 -0.63499,1.83498 -0.0384,0.0567 -0.0617,0.10335 -0.07,0.14 -0.008,0.0367 -0.0117,0.0833 -0.01,0.14 0.004,0.18418 0.0658,0.33584 0.185,0.45499 0.11913,0.11918 0.27079,0.18085 0.45499,0.185 0.26746,-0.007 0.55246,-0.0333 0.85499,-0.08 0.30246,-0.0466 0.57745,-0.0733 0.82499,-0.08 1.7566,0.0752 3.19075,0.8273 4.30244,2.25622 1.11161,1.42895 2.16076,3.08351 3.14746,4.96369 0.98661,1.88019 2.17076,3.53475 3.55245,4.96368 1.38161,1.42895 3.22075,2.18102 5.51743,2.25622 z"
         id="path3002" />
    </g>
  </g>
</svg>
